<svg width="29" height="30" viewBox="0 0 29 30" fill="none" xmlns="http://www.w3.org/2000/svg">
<path d="M14.5051 20.8188L20.2253 15.0985L14.5051 9.37825L12.503 11.3803L14.7911 13.6685H8.78481V16.5286H14.7911L12.503 18.8167L14.5051 20.8188ZM14.5051 29.3992C12.5268 29.3992 10.6677 29.0236 8.92782 28.2723C7.1879 27.522 5.67441 26.5033 4.38735 25.2162C3.10029 23.9292 2.08161 22.4157 1.3313 20.6758C0.580038 18.9359 0.204407 17.0768 0.204407 15.0985C0.204407 13.1203 0.580038 11.2612 1.3313 9.52126C2.08161 7.78135 3.10029 6.26786 4.38735 4.9808C5.67441 3.69374 7.1879 2.67458 8.92782 1.92331C10.6677 1.17301 12.5268 0.797852 14.5051 0.797852C16.4833 0.797852 18.3424 1.17301 20.0823 1.92331C21.8223 2.67458 23.3357 3.69374 24.6228 4.9808C25.9099 6.26786 26.9285 7.78135 27.6789 9.52126C28.4301 11.2612 28.8057 13.1203 28.8057 15.0985C28.8057 17.0768 28.4301 18.9359 27.6789 20.6758C26.9285 22.4157 25.9099 23.9292 24.6228 25.2162C23.3357 26.5033 21.8223 27.522 20.0823 28.2723C18.3424 29.0236 16.4833 29.3992 14.5051 29.3992ZM14.5051 26.5391C17.6989 26.5391 20.4041 25.4308 22.6207 23.2142C24.8373 20.9975 25.9456 18.2923 25.9456 15.0985C25.9456 11.9047 24.8373 9.1995 22.6207 6.98289C20.4041 4.76629 17.6989 3.65799 14.5051 3.65799C11.3113 3.65799 8.60605 4.76629 6.38945 6.98289C4.17284 9.1995 3.06454 11.9047 3.06454 15.0985C3.06454 18.2923 4.17284 20.9975 6.38945 23.2142C8.60605 25.4308 11.3113 26.5391 14.5051 26.5391Z" fill="#2C2226"/>
</svg>
