<svg width="47" height="38" viewBox="0 0 47 38" fill="none" xmlns="http://www.w3.org/2000/svg">
<path d="M5.18629 37.25C3.92317 37.25 2.84149 36.8743 1.94123 36.123C1.04097 35.3717 0.591612 34.4696 0.593144 33.4167V12.3333C0.593144 11.2792 1.04327 10.3764 1.94353 9.62508C2.84378 8.87375 3.92471 8.49872 5.18629 8.5H14.3726V4.66667C14.3726 3.6125 14.8227 2.70975 15.723 1.95842C16.6232 1.20708 17.7041 0.832056 18.9657 0.833333H28.152C29.4151 0.833333 30.4968 1.209 31.3971 1.96033C32.2973 2.71167 32.7467 3.61378 32.7452 4.66667V8.5H41.9315C43.1946 8.5 44.2763 8.87567 45.1765 9.627C46.0768 10.3783 46.5261 11.2804 46.5246 12.3333V33.4167C46.5246 34.4708 46.0745 35.3736 45.1742 36.1249C44.274 36.8763 43.193 37.2513 41.9315 37.25H5.18629ZM5.18629 33.4167H41.9315V12.3333H5.18629V33.4167ZM18.9657 8.5H28.152V4.66667H18.9657V8.5Z" fill="#FFFBFF"/>
</svg>
