<svg width="42" height="44" viewBox="0 0 42 44" fill="none" xmlns="http://www.w3.org/2000/svg">
<path d="M25.7452 24.1183H37.228V18.3217H25.7452V24.1183ZM25.7452 27.9826L23.1041 30.2046C22.7213 30.5266 22.3003 30.6071 21.841 30.4461C21.3817 30.2851 21.152 29.9792 21.152 29.5284V16.3896C21.152 15.8421 21.3725 15.3829 21.8134 15.0119C22.2544 14.641 22.7994 14.4561 23.4486 14.4574H39.5246C40.1753 14.4574 40.7211 14.6429 41.1621 15.0139C41.603 15.3848 41.8227 15.8434 41.8212 16.3896V26.0504C41.8212 26.5979 41.6007 27.0571 41.1598 27.4281C40.7188 27.7991 40.1738 27.9839 39.5246 27.9826H25.7452ZM5.076 43.44C3.81288 43.44 2.7312 43.0613 1.83094 42.3039C0.930685 41.5465 0.481322 40.6371 0.482853 39.5757V4.79653C0.482853 3.73383 0.932981 2.82378 1.83324 2.06636C2.73349 1.30895 3.81441 0.93089 5.076 0.932178H28.0417C29.3048 0.932178 30.3865 1.31088 31.2868 2.0683C32.187 2.82571 32.6364 3.73512 32.6349 4.79653V12.5252H28.0417V10.593H5.076V33.7791H28.0417V31.847H32.6349V39.5757C32.6349 40.6384 32.1848 41.5484 31.2845 42.3058C30.3842 43.0632 29.3033 43.4413 28.0417 43.44H5.076ZM5.076 37.6435V39.5757H28.0417V37.6435H5.076ZM5.076 6.7287H28.0417V4.79653H5.076V6.7287Z" fill="#FFFBFF"/>
</svg>
