<svg width="43" height="40" viewBox="0 0 43 40" fill="none" xmlns="http://www.w3.org/2000/svg">
<path fill-rule="evenodd" clip-rule="evenodd" d="M21.5589 0.864349C15.2171 0.864349 10.076 5.18967 10.076 10.5252C10.076 15.8608 15.2171 20.1861 21.5589 20.1861C27.9007 20.1861 33.0417 15.8608 33.0417 10.5252C33.0417 5.18967 27.9007 0.864349 21.5589 0.864349ZM14.6691 10.5252C14.6691 7.32389 17.7538 4.7287 21.5589 4.7287C25.364 4.7287 28.4486 7.32389 28.4486 10.5252C28.4486 13.7265 25.364 16.3217 21.5589 16.3217C17.7538 16.3217 14.6691 13.7265 14.6691 10.5252Z" fill="#FFFBFF"/>
<path d="M12.3726 24.0504C9.32713 24.0504 6.40642 25.0683 4.25296 26.88C2.09951 28.6918 0.889709 31.1491 0.889709 33.7113V37.5756C0.889709 38.6428 1.91792 39.5078 3.18628 39.5078C4.45464 39.5078 5.48286 38.6428 5.48286 37.5756V33.7113C5.48286 32.174 6.20873 30.6996 7.50081 29.6125C8.79288 28.5255 10.5453 27.9148 12.3726 27.9148H30.7452C32.5724 27.9148 34.3248 28.5255 35.6169 29.6125C36.909 30.6996 37.6349 32.174 37.6349 33.7113V37.5756C37.6349 38.6428 38.6631 39.5078 39.9314 39.5078C41.1998 39.5078 42.228 38.6428 42.228 37.5756V33.7113C42.228 31.1491 41.0182 28.6918 38.8648 26.88C36.7113 25.0683 33.7906 24.0504 30.7452 24.0504H12.3726Z" fill="#FFFBFF"/>
</svg>
